<mxfile host="drawio-plugin" modified="2023-01-10T16:25:49.584Z" agent="5.0 (Windows NT 6.2; Win64; x64) AppleWebKit/537.36 (KHTML, like Gecko) Chrome/97.0.4692.45 Safari/537.36" etag="B2lknTjPg3Br6uzknzpT" version="20.5.3" type="embed"><diagram id="7vwzz10O6Yry6n6ZV-tz" name="Page-1"><mxGraphModel dx="886" dy="735" grid="1" gridSize="10" guides="1" tooltips="1" connect="1" arrows="1" fold="1" page="1" pageScale="1" pageWidth="850" pageHeight="1100" math="0" shadow="0"><root><object label="" id="0"><mxCell/></object><mxCell id="1" parent="0"/><mxCell id="4AI2O1VsR6J1nRY1f_zR-23" value="" style="shape=table;startSize=0;container=1;collapsible=0;childLayout=tableLayout;" parent="1" vertex="1"><mxGeometry x="640" y="220" width="110" height="120" as="geometry"/></mxCell><mxCell id="4AI2O1VsR6J1nRY1f_zR-24" value="" style="shape=tableRow;horizontal=0;startSize=0;swimlaneHead=0;swimlaneBody=0;top=0;left=0;bottom=0;right=0;collapsible=0;dropTarget=0;fillColor=none;points=[[0,0.5],[1,0.5]];portConstraint=eastwest;" parent="4AI2O1VsR6J1nRY1f_zR-23" vertex="1"><mxGeometry width="110" height="40" as="geometry"/></mxCell><mxCell id="4AI2O1VsR6J1nRY1f_zR-25" value="id" style="shape=partialRectangle;html=1;whiteSpace=wrap;connectable=0;overflow=hidden;fillColor=none;top=0;left=0;bottom=0;right=0;pointerEvents=1;" parent="4AI2O1VsR6J1nRY1f_zR-24" vertex="1"><mxGeometry width="110" height="40" as="geometry"><mxRectangle width="110" height="40" as="alternateBounds"/></mxGeometry></mxCell><mxCell id="4AI2O1VsR6J1nRY1f_zR-26" value="" style="shape=tableRow;horizontal=0;startSize=0;swimlaneHead=0;swimlaneBody=0;top=0;left=0;bottom=0;right=0;collapsible=0;dropTarget=0;fillColor=none;points=[[0,0.5],[1,0.5]];portConstraint=eastwest;" parent="4AI2O1VsR6J1nRY1f_zR-23" vertex="1"><mxGeometry y="40" width="110" height="40" as="geometry"/></mxCell><mxCell id="4AI2O1VsR6J1nRY1f_zR-27" value="dish_name" style="shape=partialRectangle;html=1;whiteSpace=wrap;connectable=0;overflow=hidden;fillColor=none;top=0;left=0;bottom=0;right=0;pointerEvents=1;" parent="4AI2O1VsR6J1nRY1f_zR-26" vertex="1"><mxGeometry width="110" height="40" as="geometry"><mxRectangle width="110" height="40" as="alternateBounds"/></mxGeometry></mxCell><mxCell id="4AI2O1VsR6J1nRY1f_zR-28" value="" style="shape=tableRow;horizontal=0;startSize=0;swimlaneHead=0;swimlaneBody=0;top=0;left=0;bottom=0;right=0;collapsible=0;dropTarget=0;fillColor=none;points=[[0,0.5],[1,0.5]];portConstraint=eastwest;" parent="4AI2O1VsR6J1nRY1f_zR-23" vertex="1"><mxGeometry y="80" width="110" height="40" as="geometry"/></mxCell><mxCell id="4AI2O1VsR6J1nRY1f_zR-29" value="dish_overall_rating" style="shape=partialRectangle;html=1;whiteSpace=wrap;connectable=0;overflow=hidden;fillColor=none;top=0;left=0;bottom=0;right=0;pointerEvents=1;" parent="4AI2O1VsR6J1nRY1f_zR-28" vertex="1"><mxGeometry width="110" height="40" as="geometry"><mxRectangle width="110" height="40" as="alternateBounds"/></mxGeometry></mxCell><mxCell id="4AI2O1VsR6J1nRY1f_zR-46" value="people" style="text;html=1;align=center;verticalAlign=middle;resizable=0;points=[];autosize=1;strokeColor=none;fillColor=none;fontSize=18;" parent="1" vertex="1"><mxGeometry x="132.5" y="120" width="80" height="40" as="geometry"/></mxCell><mxCell id="4AI2O1VsR6J1nRY1f_zR-47" value="dishes" style="text;html=1;align=center;verticalAlign=middle;resizable=0;points=[];autosize=1;strokeColor=none;fillColor=none;fontSize=18;" parent="1" vertex="1"><mxGeometry x="655" y="180" width="80" height="40" as="geometry"/></mxCell><mxCell id="Jfu68c3Yp5I9nIhpLRZr-2" value="" style="shape=table;startSize=0;container=1;collapsible=0;childLayout=tableLayout;" parent="1" vertex="1"><mxGeometry x="125" y="160" width="95" height="160" as="geometry"/></mxCell><mxCell id="Jfu68c3Yp5I9nIhpLRZr-3" value="" style="shape=tableRow;horizontal=0;startSize=0;swimlaneHead=0;swimlaneBody=0;top=0;left=0;bottom=0;right=0;collapsible=0;dropTarget=0;fillColor=none;points=[[0,0.5],[1,0.5]];portConstraint=eastwest;" parent="Jfu68c3Yp5I9nIhpLRZr-2" vertex="1"><mxGeometry width="95" height="40" as="geometry"/></mxCell><mxCell id="Jfu68c3Yp5I9nIhpLRZr-4" value="id" style="shape=partialRectangle;html=1;whiteSpace=wrap;connectable=0;overflow=hidden;fillColor=none;top=0;left=0;bottom=0;right=0;pointerEvents=1;" parent="Jfu68c3Yp5I9nIhpLRZr-3" vertex="1"><mxGeometry width="95" height="40" as="geometry"><mxRectangle width="95" height="40" as="alternateBounds"/></mxGeometry></mxCell><mxCell id="Jfu68c3Yp5I9nIhpLRZr-5" value="" style="shape=tableRow;horizontal=0;startSize=0;swimlaneHead=0;swimlaneBody=0;top=0;left=0;bottom=0;right=0;collapsible=0;dropTarget=0;fillColor=none;points=[[0,0.5],[1,0.5]];portConstraint=eastwest;" parent="Jfu68c3Yp5I9nIhpLRZr-2" vertex="1"><mxGeometry y="40" width="95" height="40" as="geometry"/></mxCell><mxCell id="Jfu68c3Yp5I9nIhpLRZr-6" value="first_name" style="shape=partialRectangle;html=1;whiteSpace=wrap;connectable=0;overflow=hidden;fillColor=none;top=0;left=0;bottom=0;right=0;pointerEvents=1;" parent="Jfu68c3Yp5I9nIhpLRZr-5" vertex="1"><mxGeometry width="95" height="40" as="geometry"><mxRectangle width="95" height="40" as="alternateBounds"/></mxGeometry></mxCell><mxCell id="2" value="" style="shape=tableRow;horizontal=0;startSize=0;swimlaneHead=0;swimlaneBody=0;top=0;left=0;bottom=0;right=0;collapsible=0;dropTarget=0;fillColor=none;points=[[0,0.5],[1,0.5]];portConstraint=eastwest;" parent="Jfu68c3Yp5I9nIhpLRZr-2" vertex="1"><mxGeometry y="80" width="95" height="40" as="geometry"/></mxCell><mxCell id="3" value="dish_rating" style="shape=partialRectangle;html=1;whiteSpace=wrap;connectable=0;overflow=hidden;fillColor=none;top=0;left=0;bottom=0;right=0;pointerEvents=1;" parent="2" vertex="1"><mxGeometry width="95" height="40" as="geometry"><mxRectangle width="95" height="40" as="alternateBounds"/></mxGeometry></mxCell><mxCell id="12" value="" style="shape=tableRow;horizontal=0;startSize=0;swimlaneHead=0;swimlaneBody=0;top=0;left=0;bottom=0;right=0;collapsible=0;dropTarget=0;fillColor=none;points=[[0,0.5],[1,0.5]];portConstraint=eastwest;" vertex="1" parent="Jfu68c3Yp5I9nIhpLRZr-2"><mxGeometry y="120" width="95" height="40" as="geometry"/></mxCell><mxCell id="13" value="dish_id" style="shape=partialRectangle;html=1;whiteSpace=wrap;connectable=0;overflow=hidden;fillColor=none;top=0;left=0;bottom=0;right=0;pointerEvents=1;" vertex="1" parent="12"><mxGeometry width="95" height="40" as="geometry"><mxRectangle width="95" height="40" as="alternateBounds"/></mxGeometry></mxCell><mxCell id="Jfu68c3Yp5I9nIhpLRZr-17" value="" style="shape=table;startSize=0;container=1;collapsible=0;childLayout=tableLayout;" parent="1" vertex="1"><mxGeometry x="370" y="430" width="80" height="80" as="geometry"/></mxCell><mxCell id="Jfu68c3Yp5I9nIhpLRZr-18" value="" style="shape=tableRow;horizontal=0;startSize=0;swimlaneHead=0;swimlaneBody=0;top=0;left=0;bottom=0;right=0;collapsible=0;dropTarget=0;fillColor=none;points=[[0,0.5],[1,0.5]];portConstraint=eastwest;" parent="Jfu68c3Yp5I9nIhpLRZr-17" vertex="1"><mxGeometry width="80" height="40" as="geometry"/></mxCell><mxCell id="Jfu68c3Yp5I9nIhpLRZr-19" value="id" style="shape=partialRectangle;html=1;whiteSpace=wrap;connectable=0;overflow=hidden;fillColor=none;top=0;left=0;bottom=0;right=0;pointerEvents=1;" parent="Jfu68c3Yp5I9nIhpLRZr-18" vertex="1"><mxGeometry width="80" height="40" as="geometry"><mxRectangle width="80" height="40" as="alternateBounds"/></mxGeometry></mxCell><mxCell id="Jfu68c3Yp5I9nIhpLRZr-20" value="" style="shape=tableRow;horizontal=0;startSize=0;swimlaneHead=0;swimlaneBody=0;top=0;left=0;bottom=0;right=0;collapsible=0;dropTarget=0;fillColor=none;points=[[0,0.5],[1,0.5]];portConstraint=eastwest;" parent="Jfu68c3Yp5I9nIhpLRZr-17" vertex="1"><mxGeometry y="40" width="80" height="40" as="geometry"/></mxCell><mxCell id="Jfu68c3Yp5I9nIhpLRZr-21" value="dish_id" style="shape=partialRectangle;html=1;whiteSpace=wrap;connectable=0;overflow=hidden;fillColor=none;top=0;left=0;bottom=0;right=0;pointerEvents=1;" parent="Jfu68c3Yp5I9nIhpLRZr-20" vertex="1"><mxGeometry width="80" height="40" as="geometry"><mxRectangle width="80" height="40" as="alternateBounds"/></mxGeometry></mxCell><mxCell id="Jfu68c3Yp5I9nIhpLRZr-22" value="&lt;font style=&quot;font-size: 18px;&quot;&gt;orders&lt;/font&gt;" style="text;html=1;align=center;verticalAlign=middle;resizable=0;points=[];autosize=1;strokeColor=none;fillColor=none;" parent="1" vertex="1"><mxGeometry x="375" y="390" width="70" height="40" as="geometry"/></mxCell><mxCell id="Jfu68c3Yp5I9nIhpLRZr-23" style="edgeStyle=orthogonalEdgeStyle;rounded=0;orthogonalLoop=1;jettySize=auto;html=1;fontSize=18;startArrow=none;" parent="1" source="Jfu68c3Yp5I9nIhpLRZr-31" target="Jfu68c3Yp5I9nIhpLRZr-18" edge="1"><mxGeometry relative="1" as="geometry"/></mxCell><mxCell id="Jfu68c3Yp5I9nIhpLRZr-31" value="" style="triangle;whiteSpace=wrap;html=1;fontSize=18;rotation=-179;" parent="1" vertex="1"><mxGeometry x="340" y="435" width="20" height="30" as="geometry"/></mxCell><mxCell id="10" value="" style="triangle;whiteSpace=wrap;html=1;fontSize=18;rotation=0;direction=east;" vertex="1" parent="1"><mxGeometry x="220" y="280" width="20" height="40" as="geometry"/></mxCell><mxCell id="24" style="edgeStyle=orthogonalEdgeStyle;rounded=0;orthogonalLoop=1;jettySize=auto;html=1;entryX=1;entryY=0.5;entryDx=0;entryDy=0;" edge="1" parent="1" source="4AI2O1VsR6J1nRY1f_zR-24" target="10"><mxGeometry relative="1" as="geometry"/></mxCell></root></mxGraphModel></diagram></mxfile>